<svg width="305" height="30" viewBox="0 0 305 30" fill="none" xmlns="http://www.w3.org/2000/svg">
<rect x="0.5" y="0.5" width="55" height="29" rx="7.5" stroke="#262626"/>
<path d="M12.4912 20.2324C14.6924 20.2324 16.1348 19.084 16.1348 17.2383V17.2314C16.1348 15.8096 15.3213 14.9824 13.2637 14.5244L12.1699 14.2783C10.8301 13.9844 10.29 13.4512 10.29 12.665V12.6582C10.29 11.626 11.2402 11.0449 12.4707 11.0381C13.7559 11.0312 14.5762 11.6738 14.7129 12.542L14.7266 12.6309H15.957L15.9502 12.5352C15.8477 11.0654 14.4736 9.90332 12.5049 9.90332C10.4678 9.90332 9.03906 11.0586 9.03223 12.6924V12.6992C9.03223 14.1279 9.88672 15.0371 11.8623 15.4746L12.9561 15.7139C14.3096 16.0146 14.877 16.5752 14.877 17.3955V17.4023C14.877 18.4072 13.8994 19.0977 12.5596 19.0977C11.1377 19.0977 10.1123 18.4756 10.0234 17.4912L10.0166 17.416H8.78613L8.79297 17.4912C8.93652 19.0977 10.3311 20.2324 12.4912 20.2324ZM17.6955 20H18.885V15.6387C18.885 14.3467 19.6301 13.5537 20.8059 13.5537C21.9816 13.5537 22.5285 14.1895 22.5285 15.5156V20H23.718V15.2285C23.718 13.4785 22.7951 12.501 21.1408 12.501C20.0539 12.501 19.3635 12.959 18.9943 13.7383H18.885V9.70508H17.6955V20ZM28.4916 20.1299C30.5903 20.1299 31.8891 18.6807 31.8891 16.3223V16.3086C31.8891 13.9434 30.5903 12.501 28.4916 12.501C26.393 12.501 25.0942 13.9434 25.0942 16.3086V16.3223C25.0942 18.6807 26.393 20.1299 28.4916 20.1299ZM28.4916 19.0771C27.0971 19.0771 26.311 18.0586 26.311 16.3223V16.3086C26.311 14.5654 27.0971 13.5537 28.4916 13.5537C29.8861 13.5537 30.6723 14.5654 30.6723 16.3086V16.3223C30.6723 18.0586 29.8861 19.0771 28.4916 19.0771ZM33.3268 22.4609H34.5162V18.8379H34.6256C35.0289 19.624 35.9108 20.1299 36.9225 20.1299C38.7955 20.1299 40.0123 18.6328 40.0123 16.3223V16.3086C40.0123 14.0117 38.7887 12.501 36.9225 12.501C35.8971 12.501 35.0768 12.9863 34.6256 13.8066H34.5162V12.6309H33.3268V22.4609ZM36.649 19.0771C35.3092 19.0771 34.4889 18.0244 34.4889 16.3223V16.3086C34.4889 14.6064 35.3092 13.5537 36.649 13.5537C37.9957 13.5537 38.7955 14.5928 38.7955 16.3086V16.3223C38.7955 18.0381 37.9957 19.0771 36.649 19.0771ZM43.993 20.1299C45.6678 20.1299 46.9461 19.2207 46.9461 17.9082V17.8945C46.9461 16.8418 46.2762 16.2402 44.8885 15.9053L43.7537 15.6318C42.8856 15.4199 42.5164 15.1055 42.5164 14.6064V14.5928C42.5164 13.9434 43.159 13.4922 44.034 13.4922C44.9227 13.4922 45.4969 13.8955 45.6541 14.4766H46.8231C46.659 13.2734 45.5858 12.501 44.0409 12.501C42.4754 12.501 41.2996 13.4238 41.2996 14.6475V14.6543C41.2996 15.7139 41.9217 16.3154 43.3026 16.6436L44.4442 16.917C45.3534 17.1357 45.7293 17.4844 45.7293 17.9834V17.9971C45.7293 18.667 45.0252 19.1387 44.034 19.1387C43.0907 19.1387 42.5028 18.7354 42.3045 18.1201H41.0877C41.2244 19.3369 42.3524 20.1299 43.993 20.1299Z" fill="#262626"/>
<rect x="68.5" y="0.5" width="83" height="29" rx="7.5" stroke="#262626"/>
<path d="M77.2578 20H78.4062V12.4668H78.4814L81.5986 20H82.6377L85.7549 12.4668H85.8301V20H86.9785V10.1357H85.5498L82.1729 18.3662H82.0635L78.6865 10.1357H77.2578V20ZM90.9592 20.1299C91.9504 20.1299 92.7229 19.6992 93.1877 18.9131H93.2971V20H94.4865V14.9551C94.4865 13.4238 93.4816 12.501 91.6838 12.501C90.1115 12.501 88.9904 13.2803 88.799 14.4355L88.7922 14.4766H89.9816L89.9885 14.4561C90.1799 13.8818 90.7609 13.5537 91.6428 13.5537C92.7434 13.5537 93.2971 14.0459 93.2971 14.9551V15.625L91.1848 15.7549C89.469 15.8574 88.4983 16.6162 88.4983 17.9287V17.9424C88.4983 19.2822 89.5578 20.1299 90.9592 20.1299ZM89.715 17.915V17.9014C89.715 17.1699 90.2072 16.7734 91.3283 16.7051L93.2971 16.582V17.252C93.2971 18.3047 92.4152 19.0977 91.2053 19.0977C90.3508 19.0977 89.715 18.6602 89.715 17.915ZM99.2875 22.5977C101.297 22.5977 102.569 21.5449 102.569 19.8975V12.6309H101.379V13.8477H101.297C100.846 13.0137 100.039 12.501 99.0004 12.501C97.0727 12.501 95.8832 13.998 95.8832 16.0625V16.0762C95.8832 18.1406 97.0658 19.6172 98.9731 19.6172C99.9848 19.6172 100.819 19.1592 101.284 18.3457H101.393V19.8359C101.393 20.9229 100.607 21.5449 99.2875 21.5449C98.2279 21.5449 97.5717 21.1484 97.4418 20.5879L97.435 20.5811H96.2045L96.1908 20.5879C96.3754 21.7979 97.5102 22.5977 99.2875 22.5977ZM99.2328 18.5645C97.8656 18.5645 97.1 17.5391 97.1 16.0762V16.0625C97.1 14.5996 97.8656 13.5537 99.2328 13.5537C100.593 13.5537 101.42 14.5996 101.42 16.0625V16.0762C101.42 17.5391 100.6 18.5645 99.2328 18.5645ZM106.399 20.1299C107.39 20.1299 108.163 19.6992 108.628 18.9131H108.737V20H109.926V14.9551C109.926 13.4238 108.922 12.501 107.124 12.501C105.551 12.501 104.43 13.2803 104.239 14.4355L104.232 14.4766H105.422L105.428 14.4561C105.62 13.8818 106.201 13.5537 107.083 13.5537C108.183 13.5537 108.737 14.0459 108.737 14.9551V15.625L106.625 15.7549C104.909 15.8574 103.938 16.6162 103.938 17.9287V17.9424C103.938 19.2822 104.998 20.1299 106.399 20.1299ZM105.155 17.915V17.9014C105.155 17.1699 105.647 16.7734 106.768 16.7051L108.737 16.582V17.252C108.737 18.3047 107.855 19.0977 106.645 19.0977C105.791 19.0977 105.155 18.6602 105.155 17.915ZM111.521 20H117.195V19.0156H112.943V18.9062L117.175 13.5127V12.6309H111.528V13.6152H115.773V13.7246L111.521 19.1387V20ZM119.46 11.209C119.911 11.209 120.28 10.8398 120.28 10.3887C120.28 9.9375 119.911 9.56836 119.46 9.56836C119.009 9.56836 118.64 9.9375 118.64 10.3887C118.64 10.8398 119.009 11.209 119.46 11.209ZM118.858 20H120.048V12.6309H118.858V20ZM121.882 20H123.072V15.6387C123.072 14.3467 123.817 13.5537 124.992 13.5537C126.168 13.5537 126.715 14.1895 126.715 15.5156V20H127.905V15.2285C127.905 13.4785 126.982 12.501 125.327 12.501C124.24 12.501 123.55 12.959 123.181 13.7383H123.072V12.6309H121.882V20ZM132.658 20.1299C134.394 20.1299 135.447 19.1455 135.7 18.1475L135.713 18.0928H134.524L134.497 18.1543C134.298 18.5986 133.683 19.0703 132.685 19.0703C131.373 19.0703 130.532 18.1816 130.498 16.6572H135.802V16.1924C135.802 13.9912 134.585 12.501 132.582 12.501C130.58 12.501 129.281 14.0596 129.281 16.3359V16.3428C129.281 18.6533 130.552 20.1299 132.658 20.1299ZM132.576 13.5605C133.663 13.5605 134.469 14.251 134.592 15.707H130.518C130.648 14.3057 131.482 13.5605 132.576 13.5605ZM139.769 20.1299C141.444 20.1299 142.722 19.2207 142.722 17.9082V17.8945C142.722 16.8418 142.052 16.2402 140.665 15.9053L139.53 15.6318C138.662 15.4199 138.293 15.1055 138.293 14.6064V14.5928C138.293 13.9434 138.935 13.4922 139.81 13.4922C140.699 13.4922 141.273 13.8955 141.43 14.4766H142.599C142.435 13.2734 141.362 12.501 139.817 12.501C138.252 12.501 137.076 13.4238 137.076 14.6475V14.6543C137.076 15.7139 137.698 16.3154 139.079 16.6436L140.22 16.917C141.13 17.1357 141.506 17.4844 141.506 17.9834V17.9971C141.506 18.667 140.801 19.1387 139.81 19.1387C138.867 19.1387 138.279 18.7354 138.081 18.1201H136.864C137.001 19.3369 138.129 20.1299 139.769 20.1299Z" fill="#262626"/>
<rect x="164.5" y="0.5" width="57" height="29" rx="7.5" stroke="#262626"/>
<path d="M176.491 20.2324C178.692 20.2324 180.135 19.084 180.135 17.2383V17.2314C180.135 15.8096 179.321 14.9824 177.264 14.5244L176.17 14.2783C174.83 13.9844 174.29 13.4512 174.29 12.665V12.6582C174.29 11.626 175.24 11.0449 176.471 11.0381C177.756 11.0312 178.576 11.6738 178.713 12.542L178.727 12.6309H179.957L179.95 12.5352C179.848 11.0654 178.474 9.90332 176.505 9.90332C174.468 9.90332 173.039 11.0586 173.032 12.6924V12.6992C173.032 14.1279 173.887 15.0371 175.862 15.4746L176.956 15.7139C178.31 16.0146 178.877 16.5752 178.877 17.3955V17.4023C178.877 18.4072 177.899 19.0977 176.56 19.0977C175.138 19.0977 174.112 18.4756 174.023 17.4912L174.017 17.416H172.786L172.793 17.4912C172.937 19.0977 174.331 20.2324 176.491 20.2324ZM181.627 22.4609H182.817V18.8379H182.926C183.329 19.624 184.211 20.1299 185.223 20.1299C187.096 20.1299 188.313 18.6328 188.313 16.3223V16.3086C188.313 14.0117 187.089 12.501 185.223 12.501C184.197 12.501 183.377 12.9863 182.926 13.8066H182.817V12.6309H181.627V22.4609ZM184.949 19.0771C183.61 19.0771 182.789 18.0244 182.789 16.3223V16.3086C182.789 14.6064 183.61 13.5537 184.949 13.5537C186.296 13.5537 187.096 14.5928 187.096 16.3086V16.3223C187.096 18.0381 186.296 19.0771 184.949 19.0771ZM192.792 20.1299C194.891 20.1299 196.19 18.6807 196.19 16.3223V16.3086C196.19 13.9434 194.891 12.501 192.792 12.501C190.694 12.501 189.395 13.9434 189.395 16.3086V16.3223C189.395 18.6807 190.694 20.1299 192.792 20.1299ZM192.792 19.0771C191.398 19.0771 190.612 18.0586 190.612 16.3223V16.3086C190.612 14.5654 191.398 13.5537 192.792 13.5537C194.187 13.5537 194.973 14.5654 194.973 16.3086V16.3223C194.973 18.0586 194.187 19.0771 192.792 19.0771ZM197.628 20H198.817V15.4336C198.817 14.3535 199.624 13.6357 200.758 13.6357C201.018 13.6357 201.244 13.6631 201.49 13.7041V12.5488C201.374 12.5283 201.121 12.501 200.895 12.501C199.897 12.501 199.207 12.9521 198.926 13.7246H198.817V12.6309H197.628V20ZM205.58 20.0547C205.812 20.0547 206.038 20.0273 206.27 19.9863V18.9746C206.052 18.9951 205.935 19.002 205.723 19.002C204.958 19.002 204.657 18.6533 204.657 17.7852V13.6152H206.27V12.6309H204.657V10.7236H203.427V12.6309H202.264V13.6152H203.427V18.0859C203.427 19.4941 204.062 20.0547 205.58 20.0547ZM210.032 20.1299C211.707 20.1299 212.985 19.2207 212.985 17.9082V17.8945C212.985 16.8418 212.315 16.2402 210.928 15.9053L209.793 15.6318C208.925 15.4199 208.556 15.1055 208.556 14.6064V14.5928C208.556 13.9434 209.198 13.4922 210.073 13.4922C210.962 13.4922 211.536 13.8955 211.693 14.4766H212.862C212.698 13.2734 211.625 12.501 210.08 12.501C208.515 12.501 207.339 13.4238 207.339 14.6475V14.6543C207.339 15.7139 207.961 16.3154 209.342 16.6436L210.483 16.917C211.393 17.1357 211.769 17.4844 211.769 17.9834V17.9971C211.769 18.667 211.064 19.1387 210.073 19.1387C209.13 19.1387 208.542 18.7354 208.344 18.1201H207.127C207.264 19.3369 208.392 20.1299 210.032 20.1299Z" fill="#262626"/>
<rect x="234.5" y="0.5" width="70" height="29" rx="7.5" stroke="#262626"/>
<path d="M243.258 20H244.475V12.3506H244.584L249.937 20H251.133V10.1357H249.916V17.8125H249.807L244.454 10.1357H243.258V20ZM255.558 20.1299C256.638 20.1299 257.383 19.6855 257.745 18.8994H257.855V20H259.044V12.6309H257.855V16.9922C257.855 18.2842 257.164 19.0771 255.865 19.0771C254.69 19.0771 254.211 18.4414 254.211 17.1152V12.6309H253.022V17.4023C253.022 19.1455 253.883 20.1299 255.558 20.1299ZM263.476 20.0547C263.708 20.0547 263.934 20.0273 264.166 19.9863V18.9746C263.948 18.9951 263.831 19.002 263.62 19.002C262.854 19.002 262.553 18.6533 262.553 17.7852V13.6152H264.166V12.6309H262.553V10.7236H261.323V12.6309H260.161V13.6152H261.323V18.0859C261.323 19.4941 261.958 20.0547 263.476 20.0547ZM265.536 20H266.725V15.4336C266.725 14.3535 267.532 13.6357 268.667 13.6357C268.926 13.6357 269.152 13.6631 269.398 13.7041V12.5488C269.282 12.5283 269.029 12.501 268.803 12.501C267.805 12.501 267.115 12.9521 266.835 13.7246H266.725V12.6309H265.536V20ZM271.089 11.209C271.54 11.209 271.909 10.8398 271.909 10.3887C271.909 9.9375 271.54 9.56836 271.089 9.56836C270.638 9.56836 270.268 9.9375 270.268 10.3887C270.268 10.8398 270.638 11.209 271.089 11.209ZM270.487 20H271.677V12.6309H270.487V20ZM276.129 20.0547C276.361 20.0547 276.587 20.0273 276.819 19.9863V18.9746C276.601 18.9951 276.484 19.002 276.272 19.002C275.507 19.002 275.206 18.6533 275.206 17.7852V13.6152H276.819V12.6309H275.206V10.7236H273.976V12.6309H272.814V13.6152H273.976V18.0859C273.976 19.4941 274.611 20.0547 276.129 20.0547ZM278.818 11.209C279.269 11.209 279.638 10.8398 279.638 10.3887C279.638 9.9375 279.269 9.56836 278.818 9.56836C278.366 9.56836 277.997 9.9375 277.997 10.3887C277.997 10.8398 278.366 11.209 278.818 11.209ZM278.216 20H279.406V12.6309H278.216V20ZM284.268 20.1299C286.367 20.1299 287.665 18.6807 287.665 16.3223V16.3086C287.665 13.9434 286.367 12.501 284.268 12.501C282.169 12.501 280.871 13.9434 280.871 16.3086V16.3223C280.871 18.6807 282.169 20.1299 284.268 20.1299ZM284.268 19.0771C282.873 19.0771 282.087 18.0586 282.087 16.3223V16.3086C282.087 14.5654 282.873 13.5537 284.268 13.5537C285.663 13.5537 286.449 14.5654 286.449 16.3086V16.3223C286.449 18.0586 285.663 19.0771 284.268 19.0771ZM289.103 20H290.293V15.6387C290.293 14.3467 291.038 13.5537 292.214 13.5537C293.389 13.5537 293.936 14.1895 293.936 15.5156V20H295.126V15.2285C295.126 13.4785 294.203 12.501 292.549 12.501C291.462 12.501 290.771 12.959 290.402 13.7383H290.293V12.6309H289.103V20Z" fill="#262626"/>
</svg>
