<svg width="356" height="36" viewBox="0 0 356 36" fill="none" xmlns="http://www.w3.org/2000/svg">
<rect width="356" height="36" rx="10" fill="#767680" fill-opacity="0.12"/>
<path d="M35.4536 24.2822C38.1265 24.2822 39.8779 22.8877 39.8779 20.6465V20.6382C39.8779 18.9116 38.8901 17.9072 36.3916 17.3511L35.0635 17.0522C33.4365 16.6953 32.7808 16.0479 32.7808 15.0933V15.085C32.7808 13.8315 33.9346 13.126 35.4287 13.1177C36.9893 13.1094 37.9854 13.8896 38.1514 14.9438L38.168 15.0518H39.6621L39.6538 14.9355C39.5293 13.1509 37.8608 11.7397 35.4702 11.7397C32.9966 11.7397 31.2617 13.1426 31.2534 15.1265V15.1348C31.2534 16.8696 32.291 17.9736 34.6899 18.5049L36.0181 18.7954C37.6616 19.1606 38.3506 19.8413 38.3506 20.8374V20.8457C38.3506 22.0659 37.1636 22.9043 35.5366 22.9043C33.8101 22.9043 32.5649 22.1489 32.457 20.9536L32.4487 20.8623H30.9546L30.9629 20.9536C31.1372 22.9043 32.8306 24.2822 35.4536 24.2822ZM45.4299 24.1577C47.5383 24.1577 48.8166 22.9624 49.1237 21.7505L49.1403 21.6841H47.696L47.6628 21.7588C47.4221 22.2983 46.675 22.8711 45.4631 22.8711C43.8693 22.8711 42.8483 21.792 42.8068 19.9409H49.2483V19.3765C49.2483 16.7036 47.7707 14.894 45.3386 14.894C42.9065 14.894 41.3293 16.7866 41.3293 19.5508V19.5591C41.3293 22.3647 42.8733 24.1577 45.4299 24.1577ZM45.3303 16.1807C46.6501 16.1807 47.6296 17.019 47.779 18.7871H42.8317C42.9895 17.0854 44.0022 16.1807 45.3303 16.1807ZM53.5385 24.1577C54.7421 24.1577 55.6801 23.6348 56.2445 22.6802H56.3774V24H57.8217V17.874C57.8217 16.0146 56.6015 14.894 54.4184 14.894C52.5092 14.894 51.1479 15.8403 50.9154 17.2432L50.9071 17.293H52.3515L52.3598 17.2681C52.5922 16.5708 53.2978 16.1724 54.3686 16.1724C55.705 16.1724 56.3774 16.77 56.3774 17.874V18.6875L53.8124 18.8452C51.7289 18.9697 50.5502 19.8911 50.5502 21.4849V21.5015C50.5502 23.1284 51.8368 24.1577 53.5385 24.1577ZM52.0278 21.4683V21.4517C52.0278 20.5635 52.6254 20.082 53.9867 19.999L56.3774 19.8496V20.6631C56.3774 21.9414 55.3066 22.9043 53.8373 22.9043C52.7997 22.9043 52.0278 22.373 52.0278 21.4683ZM60.0533 24H61.4977V18.4551C61.4977 17.1436 62.4772 16.272 63.8551 16.272C64.1705 16.272 64.4445 16.3052 64.7433 16.355V14.9521C64.6022 14.9272 64.295 14.894 64.0211 14.894C62.8092 14.894 61.9708 15.4419 61.6305 16.3799H61.4977V15.0518H60.0533V24ZM69.5316 24.1577C71.6815 24.1577 72.8851 23.0039 73.2503 21.3853L73.2669 21.2939L71.8392 21.3022L71.8226 21.3521C71.4906 22.3481 70.7269 22.8794 69.5233 22.8794C67.9295 22.8794 66.9002 21.5596 66.9002 19.501V19.4844C66.9002 17.4673 67.9129 16.1724 69.5233 16.1724C70.8099 16.1724 71.6068 16.8862 71.8309 17.7661L71.8392 17.791H73.2752L73.2669 17.7412C73.0013 16.1475 71.6981 14.894 69.5233 14.894C67.0164 14.894 65.4227 16.7036 65.4227 19.4844V19.501C65.4227 22.3398 67.0247 24.1577 69.5316 24.1577ZM75.0586 24H76.503V18.7041C76.503 17.1353 77.4078 16.1724 78.8355 16.1724C80.2632 16.1724 80.9273 16.9443 80.9273 18.5547V24H82.3716V18.2061C82.3716 16.0811 81.251 14.894 79.2422 14.894C77.9224 14.894 77.084 15.4502 76.6358 16.3965H76.503V11.499H75.0586V24Z" fill="#3C3C43" fill-opacity="0.6"/>
<path d="M337 18.0482C337 19.0526 337.205 19.9443 337.615 20.7233C338.03 21.5022 338.607 22.1274 339.345 22.5989C340.082 23.0652 340.941 23.3394 341.92 23.4214V25.2124H339.068C338.904 25.2124 338.765 25.2688 338.653 25.3815C338.54 25.4943 338.484 25.6327 338.484 25.7966C338.484 25.9555 338.54 26.0913 338.653 26.2041C338.765 26.3168 338.904 26.3732 339.068 26.3732H345.932C346.096 26.3732 346.235 26.3168 346.347 26.2041C346.46 26.0913 346.516 25.9555 346.516 25.7966C346.516 25.6327 346.46 25.4943 346.347 25.3815C346.235 25.2688 346.096 25.2124 345.932 25.2124H343.08V23.4214C344.059 23.3394 344.918 23.0652 345.655 22.5989C346.393 22.1274 346.967 21.5022 347.377 20.7233C347.792 19.9443 348 19.0526 348 18.0482V16.4878C348 16.3289 347.944 16.1931 347.831 16.0804C347.718 15.9676 347.582 15.9113 347.423 15.9113C347.259 15.9113 347.121 15.9676 347.008 16.0804C346.896 16.1931 346.839 16.3289 346.839 16.4878V18.0021C346.839 18.8733 346.66 19.6369 346.301 20.2928C345.942 20.9488 345.438 21.4587 344.787 21.8225C344.141 22.1812 343.38 22.3606 342.504 22.3606C341.628 22.3606 340.864 22.1812 340.213 21.8225C339.562 21.4587 339.058 20.9488 338.699 20.2928C338.34 19.6369 338.161 18.8733 338.161 18.0021V16.4878C338.161 16.3289 338.104 16.1931 337.992 16.0804C337.879 15.9676 337.741 15.9113 337.577 15.9113C337.418 15.9113 337.282 15.9676 337.169 16.0804C337.056 16.1931 337 16.3289 337 16.4878V18.0482ZM342.504 20.7079C343.011 20.7079 343.457 20.59 343.841 20.3543C344.231 20.1186 344.531 19.7932 344.741 19.3781C344.956 18.9578 345.064 18.4736 345.064 17.9252V12.7827C345.064 12.2343 344.956 11.7526 344.741 11.3375C344.531 10.9173 344.231 10.5893 343.841 10.3536C343.457 10.1179 343.011 10 342.504 10C341.991 10 341.543 10.1179 341.159 10.3536C340.774 10.5893 340.474 10.9173 340.259 11.3375C340.044 11.7526 339.936 12.2343 339.936 12.7827V17.9252C339.936 18.4736 340.044 18.9578 340.259 19.3781C340.474 19.7932 340.774 20.1186 341.159 20.3543C341.543 20.59 341.991 20.7079 342.504 20.7079Z" fill="#8E8E93"/>
<path d="M14.3833 22.7666C15.7612 22.7666 17.0479 22.3184 18.0938 21.5713L22.0283 25.5059C22.2109 25.6885 22.4517 25.7798 22.7007 25.7798C23.2402 25.7798 23.6304 25.3647 23.6304 24.8335C23.6304 24.5845 23.5474 24.3521 23.3647 24.1694L19.4551 20.2515C20.2769 19.1724 20.7666 17.8359 20.7666 16.3833C20.7666 12.8721 17.8945 10 14.3833 10C10.8638 10 8 12.8721 8 16.3833C8 19.8945 10.8638 22.7666 14.3833 22.7666ZM14.3833 21.3887C11.6357 21.3887 9.37793 19.1226 9.37793 16.3833C9.37793 13.644 11.6357 11.3779 14.3833 11.3779C17.1226 11.3779 19.3887 13.644 19.3887 16.3833C19.3887 19.1226 17.1226 21.3887 14.3833 21.3887Z" fill="#8E8E93"/>
</svg>
